<svg width="30" height="30" viewBox="0 0 30 30" fill="none" xmlns="http://www.w3.org/2000/svg">
<path d="M25 3.75H5C4.33696 3.75 3.70107 4.01339 3.23223 4.48223C2.76339 4.95107 2.5 5.58696 2.5 6.25V8.75C2.50263 9.18628 2.6194 9.61428 2.83869 9.99146C3.05798 10.3686 3.37216 10.6819 3.75 10.9V23.75C3.75 24.413 4.01339 25.0489 4.48223 25.5178C4.95107 25.9866 5.58696 26.25 6.25 26.25H23.75C24.413 26.25 25.0489 25.9866 25.5178 25.5178C25.9866 25.0489 26.25 24.413 26.25 23.75V10.9C26.6278 10.6819 26.942 10.3686 27.1613 9.99146C27.3806 9.61428 27.4974 9.18628 27.5 8.75V6.25C27.5 5.58696 27.2366 4.95107 26.7678 4.48223C26.2989 4.01339 25.663 3.75 25 3.75ZM5 6.25H25V8.75H5V6.25ZM6.25 23.75V11.25H23.75V23.75H6.25Z" fill="#8E8E8E"/>
<path d="M10 13.75H20V16.25H10V13.75Z" fill="#8E8E8E"/>
</svg>
