<svg width="30" height="31" viewBox="0 0 30 31" fill="none" xmlns="http://www.w3.org/2000/svg">
<path d="M2.5 15.5L8.75 20.5V16.75H20V14.25H8.75V10.5L2.5 15.5Z" fill="#8E8E8E"/>
<path d="M16.2513 4.24876C14.7732 4.24466 13.309 4.5339 11.9434 5.09972C10.5779 5.66553 9.33827 6.49668 8.29626 7.54501L10.0638 9.31251C11.7163 7.66001 13.9138 6.74876 16.2513 6.74876C18.5888 6.74876 20.7863 7.66001 22.4388 9.31251C24.0913 10.965 25.0025 13.1625 25.0025 15.5C25.0025 17.8375 24.0913 20.035 22.4388 21.6875C20.7863 23.34 18.5888 24.2513 16.2513 24.2513C13.9138 24.2513 11.7163 23.34 10.0638 21.6875L8.29626 23.455C10.42 25.58 13.245 26.7513 16.2513 26.7513C19.2575 26.7513 22.0825 25.58 24.2063 23.455C26.3313 21.3313 27.5025 18.5063 27.5025 15.5C27.5025 12.4938 26.3313 9.66876 24.2063 7.54501C23.1643 6.49668 21.9246 5.66553 20.5591 5.09972C19.1936 4.5339 17.7294 4.24466 16.2513 4.24876Z" fill="#8E8E8E"/>
</svg>
