<svg width="47" height="47" viewBox="0 0 47 47" fill="none" xmlns="http://www.w3.org/2000/svg">
<path d="M38.0307 11.4531H43.2566C43.4206 11.4525 43.583 11.5022 43.7345 11.5994C43.8861 11.6966 44.0238 11.8394 44.1397 12.0195C44.2558 12.1997 44.3476 12.4136 44.4102 12.6491C44.4728 12.8845 44.5046 13.1368 44.5043 13.3915L44.5021 33.5075C44.5026 33.7623 44.4706 34.0146 44.408 34.2502C44.3456 34.4859 44.2536 34.6998 44.1376 34.8799C44.0216 35.0599 43.8839 35.2028 43.7322 35.3C43.5805 35.397 43.4181 35.4467 43.2541 35.4459H38.0286V39.3227L43.2591 39.3155C44.2511 39.3152 45.2026 38.7028 45.9041 37.6133C46.6055 36.5235 46.9998 35.0455 46.9999 33.5044V13.3913C47.0001 12.6286 46.9035 11.8733 46.7157 11.1686C46.5279 10.4639 46.2524 9.82361 45.9052 9.28429C45.558 8.74498 45.1459 8.31723 44.6923 8.02544C44.2386 7.73368 43.7524 7.58361 43.2614 7.58383L38.0286 7.58022L38.0307 11.4531Z" fill="#422E93"/>
<path d="M35.9125 9.81067L35.9102 5.44982C35.9145 2.24878 34.2368 0 32.1717 0H14.8335C12.7657 0 11.0855 2.46163 11.0876 5.66683L11.0894 8.66975H11.0876L11.09 13.4869C11.0872 15.0376 11.4782 16.5274 12.1781 17.6331C12.878 18.7388 13.8303 19.3713 14.8285 19.3932H32.1666C34.2343 19.3932 35.9145 16.4756 35.9123 13.2698L35.9107 9.81067H35.9125ZM33.4141 13.4199C33.415 13.6752 33.3837 13.9283 33.3215 14.1648C33.2594 14.4012 33.168 14.6163 33.0523 14.7977C32.9367 14.9792 32.7992 15.1234 32.6475 15.2222C32.496 15.3209 32.3334 15.3723 32.169 15.3733L14.8285 15.3866C14.142 15.3789 13.586 14.2752 13.5807 13.2084V9.81067H13.583L13.5857 5.3434C13.5826 4.27305 14.1413 3.52753 14.8308 3.5317L32.1713 3.58866C32.501 3.59091 32.8167 3.79478 33.0503 4.15615C33.2839 4.51749 33.4165 5.00723 33.4191 5.51929V8.66975H33.4168L33.4141 13.4199Z" fill="#422E93"/>
<path d="M31.358 7.57632H15.6616V11.464H31.358V7.57632Z" fill="#422E93"/>
<path d="M31.3673 35.4851H15.6709V39.3727H31.3673V35.4851Z" fill="#422E93"/>
<path d="M35.9411 38.102L35.9386 33.5131C35.943 30.3117 34.2653 27.8348 32.2 27.8348H14.8619C14.3714 27.8312 13.8852 27.9779 13.4313 28.2666C12.9773 28.5553 12.5646 28.9805 12.2166 29.5176C11.8686 30.0547 11.5923 30.6933 11.4035 31.3963C11.2146 32.0995 11.117 32.854 11.1162 33.6159L11.1178 36.733H11.1162L11.1185 41.322C11.1141 44.523 12.7919 46.9999 14.8571 46.9999H32.1952C32.6857 47.0035 33.1717 46.8568 33.6257 46.5684C34.0795 46.2797 34.4923 45.8546 34.8403 45.3177C35.1883 44.7809 35.4647 44.1426 35.6536 43.4393C35.8423 42.7363 35.9402 41.9822 35.9411 41.2203L35.9393 38.1032L35.9411 38.102ZM33.4427 41.3631C33.4429 41.6154 33.4107 41.8649 33.3479 42.0975C33.2849 42.3301 33.1928 42.5407 33.0769 42.7172C32.9608 42.8936 32.8232 43.0323 32.6723 43.1248C32.5213 43.2173 32.3598 43.2623 32.1975 43.2565L14.8571 43.2398C14.5256 43.2309 14.2096 43.0209 13.9764 42.6549C13.7433 42.289 13.6115 41.7957 13.6092 41.2809V38.102H13.6117L13.6144 33.4008C13.6137 33.1468 13.6455 32.8951 13.7079 32.6603C13.7703 32.4252 13.862 32.2121 13.9778 32.0326C14.0936 31.8534 14.2312 31.7114 14.3825 31.6149C14.5339 31.5188 14.696 31.4702 14.8596 31.4718L32.2 31.4705C32.5354 31.4932 32.8524 31.7161 33.0848 32.0926C33.3171 32.4691 33.4472 32.9704 33.4477 33.4919V36.733H33.4454L33.4427 41.3631Z" fill="#422E93"/>
<path d="M8.96941 35.4492H3.74353C3.57957 35.4498 3.41713 35.4003 3.26557 35.3031C3.11401 35.2058 2.97629 35.0633 2.86035 34.8829C2.74442 34.7029 2.65253 34.4889 2.58997 34.2536C2.52742 34.0182 2.49544 33.7659 2.49587 33.5111L2.49819 13.3935C2.49769 13.1387 2.52964 12.8863 2.59217 12.6508C2.65471 12.4153 2.7466 12.2013 2.86256 12.0211C2.97855 11.841 3.1163 11.6982 3.26792 11.6011C3.41953 11.5039 3.58202 11.4543 3.74604 11.4551H8.97156V7.58022L3.74085 7.58744C2.74878 7.58783 1.79743 8.20017 1.09593 9.28988C0.394437 10.3796 0.000237103 11.8574 0 13.3985V33.5111C0 35.0513 0.393882 36.5285 1.09499 37.6177C1.7961 38.7067 2.74701 39.3185 3.73852 39.3185L8.97138 39.3222L8.96941 35.4492Z" fill="#422E93"/>
</svg>
