<svg width="28" height="28" viewBox="0 0 28 28" fill="none" xmlns="http://www.w3.org/2000/svg">
<path d="M12.75 4V11.5C12.75 12.8813 10.2312 14 7.125 14C4.01875 14 1.5 12.8813 1.5 11.5V4" stroke="#8E8E8E" stroke-width="2" stroke-linecap="round" stroke-linejoin="round"/>
<path d="M9 25.25H5.25C4.58696 25.25 3.95107 24.9866 3.48223 24.5178C3.01339 24.0489 2.75 23.413 2.75 22.75V19M12.75 7.75C12.75 9.13125 10.2312 10.25 7.125 10.25C4.01875 10.25 1.5 9.13125 1.5 7.75H12.75ZM12.75 4C12.75 5.38125 10.2312 6.5 7.125 6.5C4.01875 6.5 1.5 5.38125 1.5 4C1.5 2.61875 4.01875 1.5 7.125 1.5C10.2312 1.5 12.75 2.61875 12.75 4ZM19 2.75H22.75C23.413 2.75 24.0489 3.01339 24.5178 3.48223C24.9866 3.95107 25.25 4.58696 25.25 5.25V9L19 2.75Z" stroke="#8E8E8E" stroke-width="2" stroke-linecap="round" stroke-linejoin="round"/>
<path d="M20.875 20.25C22.6009 20.25 24 18.8509 24 17.125C24 15.3991 22.6009 14 20.875 14C19.1491 14 17.75 15.3991 17.75 17.125C17.75 18.8509 19.1491 20.25 20.875 20.25Z" stroke="#8E8E8E" stroke-width="2" stroke-linecap="round" stroke-linejoin="round"/>
<path d="M26.5 26.5H15.25C15.25 25.7613 15.3955 25.0299 15.6782 24.3474C15.9609 23.6649 16.3752 23.0449 16.8975 22.5225C17.4199 22.0002 18.0399 21.5859 18.7224 21.3032C19.4049 21.0205 20.1363 20.875 20.875 20.875C21.6137 20.875 22.3451 21.0205 23.0276 21.3032C23.7101 21.5859 24.3301 22.0002 24.8525 22.5225C25.3748 23.0449 25.7891 23.6649 26.0718 24.3474C26.3545 25.0299 26.5 25.7613 26.5 26.5V26.5Z" stroke="#8E8E8E" stroke-width="2" stroke-linecap="round" stroke-linejoin="round"/>
</svg>
