<svg width="47" height="47" viewBox="0 0 47 47" fill="none" xmlns="http://www.w3.org/2000/svg">
<path d="M26.1748 19.977C25.1097 19.977 24.0882 19.6357 23.3351 19.0281C22.5819 18.4206 22.1588 17.5966 22.1588 16.7374C22.1588 15.8783 22.5819 15.0543 23.3351 14.4467C24.0882 13.8392 25.1097 13.4979 26.1748 13.4979C29.5466 13.4949 32.7789 12.4132 35.1632 10.4901C37.5472 8.56692 38.8885 5.95944 38.8924 3.23966C38.8924 2.38048 39.3154 1.55649 40.0687 0.94896C40.8217 0.34143 41.8432 0.00012207 42.9082 0.00012207C43.9735 0.00012207 44.9951 0.34143 45.748 0.94896C46.5013 1.55649 46.9244 2.38048 46.9244 3.23966C46.918 7.67719 44.73 11.9315 40.8401 15.0693C36.9501 18.2071 31.676 19.972 26.1748 19.977Z" fill="#EC6C0C"/>
<path d="M4.01614 46.9732C2.95101 46.9732 1.92948 46.6319 1.17631 46.0243C0.423134 45.4167 0 44.5928 0 43.7335C0.00618492 39.296 2.19429 35.0415 6.08425 31.9037C9.97423 28.7658 15.2484 27.0009 20.7495 26.996C21.8147 26.996 22.8361 27.3373 23.5893 27.9449C24.3424 28.5523 24.7656 29.3763 24.7656 30.2356C24.7656 31.0947 24.3424 31.9188 23.5893 32.5262C22.8361 33.1338 21.8147 33.4751 20.7495 33.4751C17.3778 33.4782 14.1453 34.5599 11.7612 36.483C9.37699 38.4063 8.03585 41.0137 8.032 43.7335C8.032 44.5926 7.60892 45.4167 6.85581 46.0243C6.1027 46.6319 5.08124 46.9732 4.01614 46.9732Z" fill="#BE3818"/>
<path d="M26.1749 46.9731C25.1156 46.966 24.1026 46.6217 23.3566 46.0149C22.6106 45.4082 22.192 44.5882 22.192 43.7335C22.192 42.8791 22.6106 42.059 23.3566 41.4523C24.1026 40.8456 25.1156 40.5012 26.1749 40.4941C27.845 40.4941 29.4989 40.2286 31.0416 39.7133C32.5847 39.1977 33.9865 38.4419 35.1675 37.4895C36.3485 36.5368 37.2851 35.4059 37.9243 34.1614C38.5634 32.9167 38.8922 31.5826 38.8922 30.2354C38.8922 28.8882 38.5634 27.5544 37.9243 26.3096C37.2851 25.0651 36.3485 23.9342 35.1675 22.9815C33.9865 22.029 32.5847 21.2733 31.0416 20.7578C29.4989 20.2423 27.845 19.9769 26.1749 19.9769C25.1098 19.9769 24.0883 19.6356 23.3352 19.0281C22.582 18.4206 22.1589 17.5966 22.1589 16.7374C22.1589 15.8782 22.582 15.0542 23.3352 14.4467C24.0883 13.8391 25.1098 13.4978 26.1749 13.4978C28.9062 13.4898 31.6124 13.9169 34.1385 14.7544C36.6649 15.592 38.9612 16.8235 40.8957 18.3786C42.8305 19.9336 44.3659 21.7815 45.4133 23.8162C46.4607 25.8508 47.0001 28.0322 47.0001 30.2354C47.0001 32.4385 46.4607 34.6202 45.4133 36.6548C44.3659 38.6894 42.8305 40.5373 40.8957 42.0923C38.9612 43.6475 36.6649 44.8791 34.1385 45.7167C31.6124 46.5542 28.9062 46.9811 26.1749 46.9731Z" fill="url(#paint0_linear_1_163)"/>
<path d="M40.5575 15.2924C42.5717 13.7337 44.1745 11.8624 45.2686 9.79108C46.363 7.71974 46.9263 5.49122 46.9249 3.23966C46.9249 2.38048 46.5018 1.55649 45.7486 0.94896C44.9956 0.34143 43.9741 0.00012207 42.9091 0.00012207C41.8438 0.00012207 40.8222 0.34143 40.0692 0.94896C39.316 1.55649 38.8929 2.38048 38.8929 3.23966C38.8918 4.98224 38.3406 6.69591 37.291 8.21905C36.2417 9.74219 34.7286 11.0246 32.8944 11.9454C35.7139 12.6104 38.3261 13.7513 40.5575 15.2924Z" fill="url(#paint1_linear_1_163)"/>
<path d="M20.7496 33.4751C15.2466 33.4751 9.96892 31.7117 6.07769 28.5727C2.18644 25.4339 0.000366211 21.1766 0.000366211 16.7375C0.000366211 12.2985 2.18644 8.04121 6.07769 4.90231C9.96892 1.76341 15.2466 0 20.7496 0C21.8148 0 22.8362 0.341308 23.5894 0.948837C24.3425 1.55637 24.7657 2.38036 24.7657 3.23953C24.7657 4.09871 24.3425 4.92269 23.5894 5.53024C22.8362 6.13776 21.8148 6.47907 20.7496 6.47907C19.0796 6.47907 17.4259 6.7444 15.883 7.25994C14.34 7.77548 12.9381 8.53111 11.7572 9.48369C10.5763 10.4363 9.63952 11.5672 9.00041 12.8118C8.36131 14.0564 8.03238 15.3904 8.03238 16.7375C8.03238 18.0847 8.36131 19.4187 9.00041 20.6633C9.63952 21.9079 10.5763 23.0387 11.7572 23.9914C12.9381 24.9439 14.34 25.6996 15.883 26.2152C17.4259 26.7306 19.0796 26.996 20.7496 26.996C21.8148 26.996 22.8362 27.3373 23.5894 27.9449C24.3425 28.5523 24.7657 29.3763 24.7657 30.2354C24.7657 31.0947 24.3425 31.9188 23.5894 32.5262C22.8362 33.1338 21.8148 33.4751 20.7496 33.4751Z" fill="url(#paint2_linear_1_163)"/>
<path d="M6.36784 31.6806C4.35342 33.2393 2.75081 35.1105 1.65649 37.1819C0.562155 39.2534 -0.00126953 41.4818 0.000137464 43.7335C-0.00424913 44.1613 0.0963899 44.5853 0.296246 44.9815C0.496102 45.3776 0.791225 45.738 1.16458 46.0415C1.53794 46.3454 1.98214 46.5864 2.47156 46.7507C2.96098 46.9153 3.48595 47 4.01614 47C4.54635 47 5.07132 46.9153 5.56074 46.7507C6.05016 46.5864 6.49435 46.3454 6.86771 46.0415C7.24106 45.738 7.53618 45.3776 7.73603 44.9815C7.93589 44.5853 8.03654 44.1613 8.03214 43.7335C8.03321 41.9909 8.58451 40.2772 9.63406 38.754C10.6836 37.2307 12.1968 35.9483 14.0309 35.0276C11.2114 34.3625 8.59933 33.2216 6.36784 31.6806Z" fill="#E64A1A"/>
<defs>
<linearGradient id="paint0_linear_1_163" x1="34.5794" y1="46.9731" x2="34.5794" y2="13.4977" gradientUnits="userSpaceOnUse">
<stop stop-color="#E9592D"/>
<stop offset="1" stop-color="#F39519"/>
</linearGradient>
<linearGradient id="paint1_linear_1_163" x1="36.6967" y1="13.7173" x2="46.8886" y2="1.73949" gradientUnits="userSpaceOnUse">
<stop offset="0.005" stop-color="#F39519"/>
<stop offset="0.146" stop-color="#F39519"/>
<stop offset="1" stop-color="#F39519"/>
</linearGradient>
<linearGradient id="paint2_linear_1_163" x1="12.383" y1="33.4751" x2="12.383" y2="0" gradientUnits="userSpaceOnUse">
<stop stop-color="#E9592D"/>
<stop offset="1" stop-color="#F39519"/>
</linearGradient>
</defs>
</svg>
