<svg width="25" height="27" viewBox="0 0 25 27" fill="none" xmlns="http://www.w3.org/2000/svg">
<path d="M4 7.25V3.5C4 2.83696 4.26339 2.20107 4.73223 1.73223C5.20107 1.26339 5.83696 1 6.5 1H17.125L24 7.875V23.5C24 24.163 23.7366 24.7989 23.2678 25.2678C22.7989 25.7366 22.163 26 21.5 26H14" stroke="#8E8E8E" stroke-width="2" stroke-linecap="round" stroke-linejoin="round"/>
<path d="M16.5 1V8.5H24L16.5 1ZM5.25 19.75C5.74246 19.75 6.23009 19.653 6.68506 19.4645C7.14003 19.2761 7.55343 18.9999 7.90165 18.6517C8.24987 18.3034 8.52609 17.89 8.71455 17.4351C8.903 16.9801 9 16.4925 9 16C9 15.5075 8.903 15.0199 8.71455 14.5649C8.52609 14.11 8.24987 13.6966 7.90165 13.3483C7.55343 13.0001 7.14003 12.7239 6.68506 12.5355C6.23009 12.347 5.74246 12.25 5.25 12.25C4.25544 12.25 3.30161 12.6451 2.59835 13.3483C1.89509 14.0516 1.5 15.0054 1.5 16C1.5 16.9946 1.89509 17.9484 2.59835 18.6517C3.30161 19.3549 4.25544 19.75 5.25 19.75V19.75Z" stroke="#8E8E8E" stroke-width="2" stroke-linecap="round" stroke-linejoin="round"/>
<path d="M7.75 19.125L9 26L5.25 24.75L1.5 26L2.75 19.125" stroke="#8E8E8E" stroke-width="2" stroke-linecap="round" stroke-linejoin="round"/>
</svg>
