<svg width="26" height="25" viewBox="0 0 26 25" fill="none" xmlns="http://www.w3.org/2000/svg">
<path d="M9.5625 25L9.0625 21C8.79167 20.8958 8.53667 20.7708 8.2975 20.625C8.0575 20.4792 7.82292 20.3229 7.59375 20.1562L3.875 21.7188L0.4375 15.7812L3.65625 13.3438C3.63542 13.1979 3.625 13.0571 3.625 12.9212V12.0775C3.625 11.9425 3.63542 11.8021 3.65625 11.6562L0.4375 9.21875L3.875 3.28125L7.59375 4.84375C7.82292 4.67708 8.0625 4.52083 8.3125 4.375C8.5625 4.22917 8.8125 4.10417 9.0625 4L9.5625 0H16.4375L16.9375 4C17.2083 4.10417 17.4637 4.22917 17.7038 4.375C17.9429 4.52083 18.1771 4.67708 18.4063 4.84375L22.125 3.28125L25.5625 9.21875L22.3438 11.6562C22.3646 11.8021 22.375 11.9425 22.375 12.0775V12.9212C22.375 13.0571 22.3542 13.1979 22.3125 13.3438L25.5312 15.7812L22.0937 21.7188L18.4063 20.1562C18.1771 20.3229 17.9375 20.4792 17.6875 20.625C17.4375 20.7708 17.1875 20.8958 16.9375 21L16.4375 25H9.5625ZM13.0625 16.875C14.2708 16.875 15.3021 16.4479 16.1562 15.5938C17.0104 14.7396 17.4375 13.7083 17.4375 12.5C17.4375 11.2917 17.0104 10.2604 16.1562 9.40625C15.3021 8.55208 14.2708 8.125 13.0625 8.125C11.8333 8.125 10.7967 8.55208 9.9525 9.40625C9.10917 10.2604 8.6875 11.2917 8.6875 12.5C8.6875 13.7083 9.10917 14.7396 9.9525 15.5938C10.7967 16.4479 11.8333 16.875 13.0625 16.875ZM13.0625 14.375C12.5417 14.375 12.0992 14.1925 11.735 13.8275C11.37 13.4633 11.1875 13.0208 11.1875 12.5C11.1875 11.9792 11.37 11.5367 11.735 11.1725C12.0992 10.8075 12.5417 10.625 13.0625 10.625C13.5833 10.625 14.0262 10.8075 14.3913 11.1725C14.7554 11.5367 14.9375 11.9792 14.9375 12.5C14.9375 13.0208 14.7554 13.4633 14.3913 13.8275C14.0262 14.1925 13.5833 14.375 13.0625 14.375ZM11.75 22.5H14.2188L14.6562 19.1875C15.3021 19.0208 15.9012 18.7758 16.4538 18.4525C17.0054 18.13 17.5104 17.7396 17.9688 17.2812L21.0625 18.5625L22.2812 16.4375L19.5938 14.4062C19.6979 14.1146 19.7708 13.8071 19.8125 13.4837C19.8542 13.1613 19.875 12.8333 19.875 12.5C19.875 12.1667 19.8542 11.8383 19.8125 11.515C19.7708 11.1925 19.6979 10.8854 19.5938 10.5938L22.2812 8.5625L21.0625 6.4375L17.9688 7.75C17.5104 7.27083 17.0054 6.86958 16.4538 6.54625C15.9012 6.22375 15.3021 5.97917 14.6562 5.8125L14.25 2.5H11.7812L11.3438 5.8125C10.6979 5.97917 10.0992 6.22375 9.5475 6.54625C8.995 6.86958 8.48958 7.26042 8.03125 7.71875L4.9375 6.4375L3.71875 8.5625L6.40625 10.5625C6.30208 10.875 6.22917 11.1875 6.1875 11.5C6.14583 11.8125 6.125 12.1458 6.125 12.5C6.125 12.8333 6.14583 13.1562 6.1875 13.4688C6.22917 13.7812 6.30208 14.0938 6.40625 14.4062L3.71875 16.4375L4.9375 18.5625L8.03125 17.25C8.48958 17.7292 8.995 18.13 9.5475 18.4525C10.0992 18.7758 10.6979 19.0208 11.3438 19.1875L11.75 22.5Z" fill="#8E8E8E"/>
</svg>
