<svg width="28" height="27" viewBox="0 0 28 27" fill="none" xmlns="http://www.w3.org/2000/svg">
<path d="M14 0.375C6.75137 0.375 0.875 6.25137 0.875 13.5C0.875 20.7486 6.75137 26.625 14 26.625C21.2486 26.625 27.125 20.7486 27.125 13.5C27.125 6.25137 21.2486 0.375 14 0.375ZM10.25 13.5C10.25 12.7583 10.4699 12.0333 10.882 11.4166C11.294 10.7999 11.8797 10.3193 12.5649 10.0355C13.2502 9.75162 14.0042 9.67736 14.7316 9.82205C15.459 9.96675 16.1272 10.3239 16.6516 10.8483C17.1761 11.3728 17.5333 12.041 17.6779 12.7684C17.8226 13.4958 17.7484 14.2498 17.4645 14.9351C17.1807 15.6203 16.7001 16.206 16.0834 16.618C15.4667 17.0301 14.7417 17.25 14 17.25C13.0054 17.25 12.0516 16.8549 11.3483 16.1516C10.6451 15.4484 10.25 14.4946 10.25 13.5ZM24.1508 9.8502L19.0924 10.1602C18.6339 9.46434 18.0386 8.86907 17.3428 8.41055L17.6498 3.35215C19.1444 3.89308 20.5018 4.7561 21.6258 5.88006C22.7498 7.00402 23.6128 8.36141 24.1537 9.85605L24.1508 9.8502ZM6.37637 5.87637C7.49788 4.75059 8.85506 3.88749 10.3502 3.34922L10.6602 8.40762C9.96299 8.86668 9.36668 9.46299 8.90762 10.1602L3.84922 9.85312C4.38711 8.35694 5.25023 6.99873 6.37637 5.87637ZM3.84922 17.1498L8.90762 16.8428C9.36699 17.5389 9.96328 18.1342 10.6602 18.5924L10.3531 23.6508C8.85878 23.1102 7.50158 22.2476 6.37764 21.1242C5.2537 20.0007 4.39051 18.6439 3.84922 17.1498ZM21.6236 21.1236C20.5021 22.2494 19.1449 23.1125 17.6498 23.6508L17.3428 18.5924C18.0386 18.1339 18.6339 17.5386 19.0924 16.8428L24.1508 17.1498C23.6125 18.6449 22.7494 20.0021 21.6236 21.1236Z" fill="#8E8E8E"/>
</svg>
