<svg width="22" height="23" viewBox="0 0 22 23" fill="none" xmlns="http://www.w3.org/2000/svg">
<path d="M9.497 0.576311C9.90998 0.205262 10.4456 0 11.0007 0C11.5559 0 12.0915 0.205262 12.5045 0.576311L20.7545 7.98931C20.9891 8.20025 21.1767 8.45816 21.3051 8.74629C21.4335 9.03443 21.4999 9.34635 21.5 9.66181V20.2443C21.5 20.841 21.2629 21.4133 20.841 21.8353C20.419 22.2573 19.8467 22.4943 19.25 22.4943H15.5C14.9033 22.4943 14.331 22.2573 13.909 21.8353C13.4871 21.4133 13.25 20.841 13.25 20.2443V14.9943C13.25 14.7954 13.171 14.6046 13.0303 14.464C12.8897 14.3233 12.6989 14.2443 12.5 14.2443H9.5C9.30109 14.2443 9.11032 14.3233 8.96967 14.464C8.82902 14.6046 8.75 14.7954 8.75 14.9943V20.2443C8.75 20.841 8.51295 21.4133 8.09099 21.8353C7.66903 22.2573 7.09674 22.4943 6.5 22.4943H2.75C2.15326 22.4943 1.58097 22.2573 1.15901 21.8353C0.737053 21.4133 0.5 20.841 0.5 20.2443V9.66181C0.5 9.02431 0.77 8.41681 1.247 7.98931L9.497 0.576311ZM11.501 1.69231C11.3634 1.56877 11.1849 1.50043 11 1.50043C10.8151 1.50043 10.6366 1.56877 10.499 1.69231L2.249 9.10531C2.17085 9.17547 2.1083 9.26125 2.0654 9.35712C2.02251 9.45298 2.00023 9.55679 2 9.66181V20.2443C2 20.4432 2.07902 20.634 2.21967 20.7746C2.36032 20.9153 2.55109 20.9943 2.75 20.9943H6.5C6.69891 20.9943 6.88968 20.9153 7.03033 20.7746C7.17098 20.634 7.25 20.4432 7.25 20.2443V14.9943C7.25 14.3976 7.48705 13.8253 7.90901 13.4033C8.33097 12.9814 8.90326 12.7443 9.5 12.7443H12.5C13.0967 12.7443 13.669 12.9814 14.091 13.4033C14.5129 13.8253 14.75 14.3976 14.75 14.9943V20.2443C14.75 20.4432 14.829 20.634 14.9697 20.7746C15.1103 20.9153 15.3011 20.9943 15.5 20.9943H19.25C19.4489 20.9943 19.6397 20.9153 19.7803 20.7746C19.921 20.634 20 20.4432 20 20.2443V9.66181C19.9998 9.55679 19.9775 9.45298 19.9346 9.35712C19.8917 9.26125 19.8292 9.17547 19.751 9.10531L11.501 1.69231Z" fill="black"/>
</svg>
