<svg width="26" height="26" viewBox="0 0 26 26" fill="none" xmlns="http://www.w3.org/2000/svg">
<path opacity="0.25" d="M25.3393 23.3677L20.6186 18.6609C22.1417 16.7205 22.9681 14.3243 22.9651 11.8575C22.9651 9.66067 22.3136 7.51315 21.0931 5.68652C19.8726 3.8599 18.1378 2.43622 16.1082 1.59552C14.0786 0.754813 11.8452 0.534847 9.69056 0.963433C7.53591 1.39202 5.55674 2.44991 4.00333 4.00333C2.44991 5.55674 1.39202 7.53591 0.963433 9.69056C0.534847 11.8452 0.754813 14.0786 1.59552 16.1082C2.43622 18.1378 3.8599 19.8726 5.68652 21.0931C7.51315 22.3136 9.66067 22.9651 11.8575 22.9651C14.3243 22.9681 16.7205 22.1417 18.6609 20.6186L23.3677 25.3393C23.4968 25.4694 23.6504 25.5727 23.8195 25.6432C23.9887 25.7137 24.1702 25.75 24.3535 25.75C24.5368 25.75 24.7183 25.7137 24.8875 25.6432C25.0567 25.5727 25.2102 25.4694 25.3393 25.3393C25.4694 25.2102 25.5727 25.0567 25.6432 24.8875C25.7137 24.7183 25.75 24.5368 25.75 24.3535C25.75 24.1702 25.7137 23.9887 25.6432 23.8195C25.5727 23.6504 25.4694 23.4968 25.3393 23.3677ZM3.52689 11.8575C3.52689 10.2099 4.01547 8.59924 4.93085 7.22928C5.84624 5.85931 7.14731 4.79155 8.66953 4.16102C10.1918 3.53049 11.8668 3.36552 13.4828 3.68696C15.0988 4.0084 16.5831 4.80182 17.7482 5.96688C18.9133 7.13194 19.7067 8.61632 20.0281 10.2323C20.3496 11.8483 20.1846 13.5233 19.5541 15.0455C18.9235 16.5678 17.8558 17.8688 16.4858 18.7842C15.1158 19.6996 13.5052 20.1882 11.8575 20.1882C9.64811 20.1882 7.52918 19.3105 5.96688 17.7482C4.40458 16.1859 3.52689 14.067 3.52689 11.8575Z" fill="#8E8E8E"/>
</svg>
