<svg width="26" height="20" viewBox="0 0 26 20" fill="none" xmlns="http://www.w3.org/2000/svg">
<path d="M11.0625 14.375C11.5625 14.875 12.2083 15.1196 13 15.1087C13.7917 15.0988 14.375 14.8125 14.75 14.25L20.0312 6.34375C20.2188 6.05208 20.1925 5.78667 19.9525 5.5475C19.7133 5.3075 19.4479 5.28125 19.1562 5.46875L11.25 10.75C10.6875 11.125 10.3908 11.6979 10.36 12.4688C10.3283 13.2396 10.5625 13.875 11.0625 14.375ZM4.375 20C3.9375 20 3.52083 19.8958 3.125 19.6875C2.72917 19.4792 2.41667 19.1875 2.1875 18.8125C1.64583 17.875 1.22917 16.8804 0.9375 15.8288C0.645833 14.7762 0.5 13.6667 0.5 12.5C0.5 10.7708 0.828333 9.15083 1.485 7.64C2.14083 6.13 3.03667 4.80708 4.1725 3.67125C5.3075 2.53625 6.63542 1.64042 8.15625 0.98375C9.67708 0.327917 11.2917 0 13 0C13.9375 0 14.8438 0.09875 15.7188 0.29625C16.5938 0.494583 17.4375 0.791666 18.25 1.1875C18.6875 1.41667 18.9425 1.72917 19.015 2.125C19.0883 2.52083 18.9792 2.89583 18.6875 3.25C18.5208 3.4375 18.2917 3.55208 18 3.59375C17.7083 3.63542 17.4479 3.60417 17.2188 3.5C16.5521 3.16667 15.8646 2.91667 15.1562 2.75C14.4479 2.58333 13.7292 2.5 13 2.5C10.2292 2.5 7.87 3.47375 5.9225 5.42125C3.97417 7.36958 3 9.72917 3 12.5C3 13.375 3.11958 14.2396 3.35875 15.0938C3.59875 15.9479 3.9375 16.75 4.375 17.5H21.625C22.1042 16.7083 22.4533 15.8854 22.6725 15.0312C22.8908 14.1771 23 13.2917 23 12.375C23 11.6458 22.9117 10.9325 22.735 10.235C22.5575 9.53667 22.3021 8.86458 21.9688 8.21875C21.8229 7.94792 21.7812 7.66667 21.8438 7.375C21.9063 7.08333 22.0521 6.84375 22.2812 6.65625C22.6146 6.36458 22.9792 6.28125 23.375 6.40625C23.7708 6.53125 24.0625 6.80208 24.25 7.21875C24.625 8.01042 24.9167 8.82833 25.125 9.6725C25.3333 10.5158 25.4583 11.3958 25.5 12.3125C25.5 13.5 25.3596 14.6354 25.0788 15.7188C24.7971 16.8021 24.375 17.8333 23.8125 18.8125C23.5833 19.1875 23.2708 19.4792 22.875 19.6875C22.4792 19.8958 22.0625 20 21.625 20H4.375Z" fill="#8E8E8E"/>
</svg>
