<svg width="24" height="24" viewBox="0 0 24 24" fill="none" xmlns="http://www.w3.org/2000/svg">
<path d="M14.5 3.25C14.5 2.58696 14.2366 1.95107 13.7678 1.48223C13.2989 1.01339 12.663 0.75 12 0.75C11.337 0.75 10.7011 1.01339 10.2322 1.48223C9.76339 1.95107 9.5 2.58696 9.5 3.25M21.075 9.12L22.8062 20.37C22.861 20.7261 22.8382 21.0898 22.7393 21.4362C22.6404 21.7826 22.4678 22.1035 22.2334 22.377C21.9989 22.6506 21.7081 22.8702 21.3809 23.0208C21.0537 23.1715 20.6977 23.2497 20.3375 23.25H3.6625C3.30204 23.25 2.94583 23.1721 2.6183 23.0216C2.29077 22.8711 1.99966 22.6516 1.76493 22.378C1.5302 22.1044 1.3574 21.7834 1.25838 21.4368C1.15936 21.0902 1.13646 20.7263 1.19125 20.37L2.9225 9.12C3.01331 8.52949 3.3126 7.99102 3.76616 7.60213C4.21971 7.21323 4.79755 6.99963 5.395 7H18.605C19.2022 6.99993 19.7798 7.21367 20.2331 7.60254C20.6864 7.9914 20.9855 8.5297 21.0762 9.12H21.075Z" stroke="#8E8E8E" stroke-width="1.5" stroke-linecap="round" stroke-linejoin="round"/>
</svg>
