<svg width="15" height="8" viewBox="0 0 15 8" fill="none" xmlns="http://www.w3.org/2000/svg">
<path d="M7.5 7.66666C7.25661 7.66713 7.02074 7.58237 6.83333 7.42708L0.583336 2.21874C0.37061 2.04193 0.236835 1.78786 0.211439 1.51241C0.186044 1.23697 0.271108 0.962718 0.447919 0.749992C0.62473 0.537266 0.878804 0.403491 1.15425 0.378096C1.42969 0.3527 1.70394 0.437764 1.91667 0.614575L7.5 5.28124L13.0833 0.781242C13.1899 0.694715 13.3125 0.630099 13.4441 0.591108C13.5757 0.552116 13.7137 0.539519 13.8502 0.554039C13.9867 0.568559 14.119 0.609909 14.2394 0.675715C14.3599 0.741522 14.4661 0.830485 14.5521 0.937492C14.6475 1.0446 14.7197 1.17025 14.7643 1.30658C14.8089 1.4429 14.8248 1.58697 14.8111 1.72974C14.7974 1.87252 14.7544 2.01092 14.6847 2.1363C14.6151 2.26167 14.5203 2.3713 14.4063 2.45833L8.15625 7.48957C7.96346 7.62032 7.7324 7.68267 7.5 7.66666Z" fill="#8E8E8E"/>
</svg>
